<?xml version="1.0" encoding="UTF-8" standalone="no"?>
<svg
   height="48"
   viewBox="0 -960 960 960"
   width="48"
   version="1.1"
   id="svg6566"
   sodipodi:docname="190298_game_tac_tic_grey_toe_icon.svg"
   inkscape:version="1.2.2 (732a01da63, 2022-12-09)"
   xmlns:inkscape="http://www.inkscape.org/namespaces/inkscape"
   xmlns:sodipodi="http://sodipodi.sourceforge.net/DTD/sodipodi-0.dtd"
   xmlns="http://www.w3.org/2000/svg"
   xmlns:svg="http://www.w3.org/2000/svg">
  <defs
     id="defs6570" />
  <sodipodi:namedview
     id="namedview6568"
     pagecolor="#ffffff"
     bordercolor="#999999"
     borderopacity="1"
     inkscape:showpageshadow="0"
     inkscape:pageopacity="0"
     inkscape:pagecheckerboard="0"
     inkscape:deskcolor="#d1d1d1"
     showgrid="false"
     inkscape:zoom="16.791667"
     inkscape:cx="20.992556"
     inkscape:cy="24"
     inkscape:window-width="1920"
     inkscape:window-height="1009"
     inkscape:window-x="-8"
     inkscape:window-y="-8"
     inkscape:window-maximized="1"
     inkscape:current-layer="svg6566" />
  <circle
     style="fill:#ffffff;fill-opacity:1;fill-rule:evenodd;stroke:#ffffff;stroke-width:0.995146;stroke-linecap:round;stroke-dasharray:none;stroke-opacity:1"
     id="path951"
     cx="480"
     cy="-480"
     r="479.50244"
     inkscape:label="Circle">
    <title
       id="title6993">Circle</title>
  </circle>
  <path
     id="Tic_Tac_Toe"
     data-name="Relleno de color 1"
     class="cls-2"
     d="m 480.4448,-817.23181 h 2.76394 c 2.856,18.31968 6.09254,38.31936 9.21302,58.9632 q 0.46071,57.1152 0.92131,114.24192 5.52788,62.18112 11.05565,124.37568 h 0.92131 c 83.12199,-30.3792 175.53169,-47.4768 277.3129,-57.12 q -0.92131,15.20064 -1.84262,30.40224 l -67.2553,21.19008 c -44.27241,13.848 -90.97334,24.03552 -137.27443,37.77408 l -63.57005,17.50464 q 8.29171,42.38016 16.58342,84.76032 14.7409,66.7872 29.4818,133.5888 c 4.62499,16.87776 21.61939,70.19808 13.81958,88.44576 l -25.79654,20.26848 c -2.78515,-1.15968 -1.10554,0.0192 -2.76394,-1.8432 -19.31606,-20.43552 -25.10736,-60.2976 -34.08826,-90.28704 -20.69529,-69.10656 -37.89609,-143.592 -48.82924,-219.27072 h -0.92122 l -175.96935,58.9632 c -34.4854,13.54272 -66.25929,34.97088 -106.87142,39.61632 v -4.60704 q 2.30333,-17.96544 4.60656,-35.93088 l 71.86176,-35.93088 c 62.68838,-27.4032 130.50845,-54.13536 199.92327,-71.86176 -6.08986,-90.80736 -21.70138,-213.00096 -2.76394,-305.87328 z m 129.90404,31.32384 c 112.18368,-1.99488 117.0168,166.15872 20.26867,182.41824 -53.81338,9.04512 -88.13568,-54.7584 -77.38963,-109.63488 7.9896,-40.79808 23.53756,-57.15648 57.12096,-72.78336 z m 11.97696,46.9872 c -34.00263,17.856 -33.19181,94.88544 5.52787,86.60256 36.39149,-7.78656 26.58883,-79.6224 -5.52787,-86.60256 z m -304.95198,75.54624 c 7.0489,2.03328 25.4906,16.1232 26.71776,23.95392 -3.51936,9.11712 -24.87523,53.43648 -24.87523,53.43648 12.84115,14.90976 31.75191,23.03232 43.30138,39.61536 v 2.76384 l -20.26867,19.34784 c -21.23799,-1.4592 -35.1193,-15.32832 -49.75056,-23.95392 l -1.84253,0.9216 c -5.34912,16.04832 -19.50778,37.5888 -32.24573,46.98624 -9.72163,-2.91264 -31.27738,-15.03456 -35.00957,-23.95392 l 15.66221,-37.77312 15.66211,-25.79712 c -13.86096,-10.73568 -35.47017,-35.29632 -36.85219,-57.12096 l 18.42614,-14.7408 c 18.98804,5.26176 27.71741,27.48768 41.45876,38.69472 h 0.92121 c 7.54551,-18.24192 26.04259,-28.94784 38.69491,-42.38016 z m 386.02686,231.24768 c 10.61712,1.52256 16.12281,9.11616 24.87523,12.89856 1.57546,26.89248 -6.8545,51.144 -14.7409,72.78336 13.30186,16.39872 32.30832,25.73376 44.22269,44.2224 -1.81593,10.61664 -14.70681,27.03264 -22.11139,33.16704 -16.78522,-5.14944 -26.44138,-19.01952 -41.45866,-23.95392 -3.63369,12.04896 -13.19865,26.81568 -22.11139,34.08864 -10.68067,-1.36512 -27.19411,-11.36736 -33.16694,-18.42624 2.88643,-21.73728 14.28758,-35.9808 17.50473,-55.27872 -16.03891,-12.0768 -41.76,-39.4032 -46.98653,-60.8064 l 21.18999,-20.26848 h 3.68525 l 44.22268,36.85248 z m -358.38778,63.57024 c 107.6159,-1.9344 118.66416,161.5968 29.48179,180.576 -65.44954,13.92576 -107.20954,-61.87008 -88.44528,-124.37664 10.95341,-36.48288 25.72838,-41.98176 58.96349,-56.19936 z m 6.44918,44.2224 c -7.51968,3.71328 -14.67456,5.61984 -19.34746,11.97696 -17.71296,24.11424 -8.88691,88.97472 32.24573,79.23264 40.37712,-9.56352 29.11325,-91.32288 -12.89827,-91.2096 z"
     style="fill:#3a3a3c;fill-opacity:1;fill-rule:evenodd;stroke:#3a3a3c;stroke-width:0.921305;stroke-opacity:1;image-rendering:auto"
     inkscape:label="Tic Tac Toe">
    <title
       id="title6991">Tic Tac Toe</title>
  </path>
</svg>
